# Blender v3.6.0 OBJ File: ''
# www.blender.org
mtllib dode.mtl
o Solid_Dodecahedron
v -0.726439 3.236211 -0.999966
v -1.175403 2.000046 -1.617912
v -1.175467 3.236211 0.382000
v -1.901906 1.235988 -0.617967
v -1.901906 2.000046 0.618034
v -1.175467 1.236055 1.617891
v 0.000104 2.000155 1.999857
v 0.000104 3.236211 1.236102
v 1.175506 1.236164 1.617946
v 1.902009 2.000223 0.618000
v 1.175674 3.236211 0.382000
v 0.726646 3.236211 -0.999966
v 1.175570 2.000155 -1.617858
v 0.000000 1.236055 -1.999824
v 1.902009 1.236164 -0.618000
v -0.726542 0.000000 1.000000
v 0.726542 0.000000 1.000000
v 1.175570 -0.000000 -0.381966
v -1.175570 -0.000000 -0.381966
v 0.000000 -0.000000 -1.236068
vt 0.000000 0.000000
vt 1.000000 0.000000
vt 1.000000 1.000000
vt 0.000000 0.000000
vt 1.000000 1.000000
vt 1.000000 0.000000
vt 1.000000 1.000000
vt 0.000000 0.000000
vt 1.000000 0.000000
vt 0.000000 0.000000
vt 1.000000 1.000000
vt 0.000000 0.000000
vt 1.000000 0.000000
vt 1.000000 1.000000
vt 0.000000 0.000000
vt 1.000000 1.000000
vt 1.000000 0.000000
vt 0.000000 0.000000
vt 1.000000 0.000000
vt 1.000000 1.000000
vt 1.000000 1.000000
vt 0.000000 0.000000
vt 1.000000 1.000000
vt 1.000000 0.000000
vt 0.000000 0.000000
vt 1.000000 0.000000
vt 1.000000 1.000000
vt 0.000000 0.000000
vt 1.000000 1.000000
vt 0.000000 0.000000
vt 1.000000 1.000000
vt 0.000000 0.000000
vt 1.000000 0.000000
vt 1.000000 1.000000
vt 1.000000 1.000000
vt 1.000000 0.000000
vt 0.000000 0.000000
vt 1.000000 0.000000
vt 0.000000 0.000000
vt 1.000000 0.000000
vt 1.000000 1.000000
vt 0.000000 0.000000
vt 1.000000 0.000000
vt 1.000000 0.000000
vt 0.000000 0.000000
vt 1.000000 1.000000
vt 1.000000 1.000000
vt 1.000000 0.000000
vt 0.000000 0.000000
vt 1.000000 0.000000
vt 1.000000 0.000000
vt 0.000000 0.000000
vn -0.8507 0.4471 -0.2764
vn -0.5258 0.4471 0.7236
vn 0.5258 0.4471 0.7236
vn 0.0000 0.4471 -0.8945
vn 0.0000 1.0000 -0.0000
vn 0.8507 0.4471 -0.2764
vn 0.0000 -0.4471 0.8945
vn 0.8507 -0.4471 0.2764
vn -0.8507 -0.4471 0.2764
vn 0.5258 -0.4471 -0.7236
vn 0.0000 -1.0000 0.0000
vn -0.5258 -0.4471 -0.7236
usemtl Material.001
s off
f 1/1/1 2/2/1 3/3/1
f 3/4/1 2/2/1 4/5/1
f 3/4/1 4/6/1 5/7/1
f 6/8/2 7/9/2 5/7/2
f 5/10/2 7/9/2 3/3/2
f 3/4/2 7/9/2 8/11/2
f 9/12/3 10/13/3 7/14/3
f 7/15/3 10/13/3 11/16/3
f 7/15/3 11/17/3 8/11/3
f 12/18/4 13/19/4 1/20/4
f 1/1/4 13/19/4 2/21/4
f 2/22/4 13/19/4 14/23/4
f 12/18/5 1/24/5 11/16/5
f 11/25/5 1/24/5 3/3/5
f 11/25/5 3/26/5 8/11/5
f 12/18/6 11/17/6 13/27/6
f 13/28/6 11/17/6 15/29/6
f 15/30/6 11/17/6 10/31/6
f 16/32/7 17/33/7 6/34/7
f 6/8/7 17/33/7 9/35/7
f 6/8/7 9/36/7 7/14/7
f 17/37/8 18/38/8 9/35/8
f 9/12/8 18/38/8 10/31/8
f 10/39/8 18/38/8 15/29/8
f 16/32/9 6/40/9 19/41/9
f 19/42/9 6/40/9 5/7/9
f 19/42/9 5/43/9 4/5/9
f 13/28/10 15/44/10 14/23/10
f 14/45/10 15/44/10 18/46/10
f 14/45/10 18/38/10 20/47/10
f 17/37/11 16/48/11 18/46/11
f 18/49/11 16/48/11 19/41/11
f 18/49/11 19/50/11 20/47/11
f 2/22/12 14/51/12 4/5/12
f 4/52/12 14/51/12 19/41/12
f 19/42/12 14/51/12 20/47/12
